<svg xmlns="http://www.w3.org/2000/svg" id="Capa_2" data-name="Capa 2" viewBox="0 0 202.7 59.1"><defs><style>      .cls-1 {        fill: #c8be24;      }      .cls-1, .cls-2 {        stroke-width: 0px;      }      .cls-3 {        fill: none;        stroke: #fff;        stroke-width: .47px;      }      .cls-2 {        fill: #fff;      }    </style></defs><g id="Capa_1-2" data-name="Capa 1"><g><g><path class="cls-2" d="M22.82,4.97h-8.12v28.96h-5.47V4.97H0V0h22.82v4.97Z"></path><path class="cls-2" d="M47.69,33.93h-4.89l-2.04-5.99h-13.18l-2.08,5.99h-4.9L30.81,5.19h6.69l10.2,28.74ZM39.17,23.46l-4.65-13.3h-.73l-4.61,13.3h9.99Z"></path><path class="cls-2" d="M71.23,23.46V5.19h5.46v28.74h-8.44l-12.2-23.77h-.73c.22,1.72.33,3.5.33,5.34v18.43h-5.47V5.19h8.44l12.24,23.77h.69c-.22-1.75-.33-3.59-.33-5.5Z"></path><path class="cls-2" d="M107.37,19.6v14.33h-4.98v-1.11c0-1.67.68-4.43,2.04-8.29h-.73c-.16,1.15-.6,2.47-1.31,3.96-.71,1.49-1.88,2.85-3.53,4.08-1.65,1.23-3.83,1.85-6.55,1.85-1.9,0-3.77-.5-5.61-1.5-1.84-1-3.37-2.6-4.59-4.8-1.22-2.2-1.84-5.04-1.84-8.52,0-2.57.49-4.99,1.47-7.25.98-2.26,2.51-4.1,4.59-5.52,2.08-1.42,4.73-2.13,7.93-2.13,2.85,0,5.2.57,7.04,1.7,1.84,1.14,3.2,2.39,4.08,3.76.88,1.37,1.51,2.63,1.9,3.78h-5.87c-.49-1.01-1.32-1.98-2.49-2.89-1.17-.92-2.73-1.38-4.69-1.38s-3.49.49-4.77,1.46c-1.28.97-2.22,2.21-2.81,3.72-.6,1.5-.9,3.06-.9,4.68s.3,3.22.9,4.72c.6,1.5,1.53,2.74,2.79,3.72,1.26.97,2.85,1.47,4.75,1.5,1.44-.03,2.72-.37,3.83-1.03,1.12-.66,1.98-1.49,2.61-2.5.63-1.01.94-2.05.94-3.12,0-.27-.1-.51-.29-.7-.19-.19-.42-.29-.69-.29h-6.85v-4.97h10.89c.79,0,1.44.26,1.96.78.52.52.77,1.18.77,1.97Z"></path><path class="cls-2" d="M116.96,5.19v28.74h-5.47V5.19h5.47Z"></path><path class="cls-2" d="M143.17,30.85c-1.02,1.09-2.36,1.88-4.02,2.36-1.66.48-3.48.72-5.47.72h-11.54V5.19h11.42c1.66,0,3.2.27,4.63.8,1.43.53,2.57,1.34,3.43,2.42.86,1.08,1.29,2.39,1.29,3.92,0,1.31-.3,2.41-.9,3.28-.6.88-1.37,1.54-2.32,1.99-.95.45-1.99.75-3.1.88v.74c1.3.08,2.58.39,3.81.92,1.24.53,2.26,1.34,3.08,2.42.82,1.08,1.22,2.42,1.22,4,0,1.75-.51,3.18-1.53,4.27ZM136.8,15.66c.69-.52,1.04-1.3,1.04-2.34s-.35-1.79-1.04-2.34c-.69-.55-1.67-.82-2.92-.82h-6.28v6.28h6.28c1.25,0,2.22-.26,2.92-.78ZM136.8,28.57c.77-.26,1.37-.67,1.77-1.23.41-.56.61-1.28.61-2.16s-.21-1.55-.63-2.11c-.42-.56-1.01-.98-1.78-1.25-.76-.27-1.67-.41-2.73-.41h-6.45v7.55h6.45c1.06,0,1.98-.13,2.75-.39Z"></path><path class="cls-2" d="M153.59,28.96h12.89v4.97h-18.36V5.19h5.47v23.77Z"></path><path class="cls-2" d="M187.65,10.16h-12.81v6.69h11.46v4.84h-11.46v7.27h12.81v4.97h-18.28V5.19h18.28v4.97Z"></path><path class="cls-1" d="M198.9,33.93c2.1,0,3.8-1.71,3.8-3.83s-1.7-3.83-3.8-3.83-3.8,1.71-3.8,3.83,1.7,3.83,3.8,3.83Z"></path></g><path class="cls-2" d="M11.95,44.47v14.52h-2.72v-14.52h2.72Z"></path><path class="cls-2" d="M28.43,53.7v-9.23h2.72v14.52h-4.21l-6.08-12.01h-.36c.11.87.16,1.77.16,2.7v9.31h-2.72v-14.52h4.21l6.1,12.01h.35c-.11-.88-.16-1.81-.16-2.78Z"></path><path class="cls-2" d="M46.83,46.59h-3.45v12.39h-2.32v-12.39h-3.92v-2.13h9.68v2.13Z"></path><path class="cls-2" d="M61.93,46.98h-6.38v3.38h5.71v2.45h-5.71v3.67h6.38v2.51h-9.1v-14.52h9.1v2.51Z"></path><path class="cls-2" d="M70.65,56.48h6.42v2.51h-9.14v-14.52h2.72v12.01Z"></path><path class="cls-2" d="M85.78,56.48h6.42v2.51h-9.14v-14.52h2.72v12.01Z"></path><path class="cls-2" d="M100.92,44.47v14.52h-2.72v-14.52h2.72Z"></path><path class="cls-2" d="M120.41,51.75v7h-2.48v-.54c0-.82.34-2.17,1.01-4.05h-.37c-.08.56-.3,1.21-.65,1.94-.35.73-.94,1.39-1.76,2-.82.6-1.91.9-3.26.9-.95,0-1.88-.24-2.79-.73-.91-.49-1.68-1.27-2.29-2.35-.61-1.08-.91-2.46-.91-4.16,0-1.26.24-2.44.73-3.54.49-1.1,1.25-2,2.29-2.7,1.04-.7,2.35-1.04,3.95-1.04,1.42,0,2.59.28,3.51.83.91.55,1.59,1.17,2.03,1.84s.76,1.28.95,1.85h-2.93c-.24-.49-.66-.97-1.24-1.41-.58-.45-1.36-.67-2.34-.67s-1.74.24-2.38.71c-.64.47-1.1,1.08-1.4,1.82-.3.74-.45,1.5-.45,2.29s.15,1.57.45,2.31c.3.74.76,1.34,1.39,1.82.63.47,1.42.72,2.37.73.72-.01,1.35-.18,1.91-.5.56-.32.99-.73,1.3-1.22.31-.49.47-1,.47-1.52,0-.13-.05-.25-.14-.34-.09-.09-.21-.14-.35-.14h-3.41v-2.43h5.42c.39,0,.72.13.98.38s.39.58.39.96Z"></path><path class="cls-2" d="M135.51,46.98h-6.38v3.38h5.71v2.45h-5.71v3.67h6.38v2.51h-9.1v-14.52h9.1v2.51Z"></path><path class="cls-2" d="M151.99,53.7v-9.23h2.72v14.52h-4.21l-6.07-12.01h-.37c.11.87.16,1.77.16,2.7v9.31h-2.72v-14.52h4.21l6.1,12.01h.35c-.11-.88-.16-1.81-.16-2.78Z"></path><path class="cls-2" d="M172.58,53.64c0,2.48-1.82,5.46-5.71,5.46s-6.17-3.05-6.17-7.38,2.27-7.36,6.17-7.36c3.25,0,5.05,2.05,5.55,4.19.1.43.15.84.15,1.25h-2.96c0-.18-.02-.38-.05-.56-.2-1.41-1.14-2.46-2.7-2.46-1.84,0-3.16,1.56-3.16,4.94s1.32,4.97,3.16,4.97,2.74-1.43,2.74-3.04h2.96Z"></path><path class="cls-2" d="M187.68,46.98h-6.38v3.38h5.71v2.45h-5.71v3.67h6.38v2.51h-9.1v-14.52h9.1v2.51Z"></path><line class="cls-3" x1="9.23" y1="39.52" x2="202.7" y2="39.52"></line><path class="cls-2" d="M197.67,55.7h-1.09v3.29h-.73v-3.29h-1.09v-.69h2.92v.69Z"></path><path class="cls-2" d="M200.49,58.3l1.01-3.29h1.21v3.98h-.73v-2.64c0-.2.02-.42.05-.65h-.1l-1.01,3.29h-.95l-1.01-3.29h-.1c.02.09.03.2.03.32.01.11.02.22.02.33v2.64h-.73v-3.98h1.21l1,3.29h.1Z"></path></g></g></svg>